<mxfile host="app.diagrams.net" modified="2022-01-17T17:09:33.574Z" agent="5.0 (Windows NT 10.0; Win64; x64) AppleWebKit/537.36 (KHTML, like Gecko) Chrome/96.0.4664.110 Safari/537.36 OPR/82.0.4227.58" etag="_Tr4AIukLQT8Evx6M_e0" version="14.7.0" type="github">
  <diagram id="sgW8315THJMmDeOMLILc" name="Page-1">
    <mxGraphModel dx="998" dy="548" grid="1" gridSize="10" guides="1" tooltips="1" connect="1" arrows="1" fold="1" page="1" pageScale="1" pageWidth="850" pageHeight="1100" math="0" shadow="0">
      <root>
        <mxCell id="0" />
        <mxCell id="1" parent="0" />
        <mxCell id="68K0g6yoqlShgge0QlgU-1" value="Movie" style="rounded=0;whiteSpace=wrap;html=1;" parent="1" vertex="1">
          <mxGeometry x="320" y="240" width="140" height="80" as="geometry" />
        </mxCell>
        <mxCell id="68K0g6yoqlShgge0QlgU-5" value="Rating" style="rounded=0;whiteSpace=wrap;html=1;" parent="1" vertex="1">
          <mxGeometry x="550" y="240" width="140" height="80" as="geometry" />
        </mxCell>
        <mxCell id="68K0g6yoqlShgge0QlgU-7" value="Year of Release" style="rounded=0;whiteSpace=wrap;html=1;" parent="1" vertex="1">
          <mxGeometry x="320" y="400" width="140" height="80" as="geometry" />
        </mxCell>
        <mxCell id="68K0g6yoqlShgge0QlgU-8" value="Length" style="rounded=0;whiteSpace=wrap;html=1;" parent="1" vertex="1">
          <mxGeometry x="90" y="400" width="140" height="80" as="geometry" />
        </mxCell>
        <mxCell id="68K0g6yoqlShgge0QlgU-9" value="Production Company" style="rounded=0;whiteSpace=wrap;html=1;" parent="1" vertex="1">
          <mxGeometry x="550" y="400" width="140" height="80" as="geometry" />
        </mxCell>
        <mxCell id="68K0g6yoqlShgge0QlgU-12" value="Genre" style="ellipse;shape=doubleEllipse;whiteSpace=wrap;html=1;" parent="1" vertex="1">
          <mxGeometry x="320" y="50" width="140" height="110" as="geometry" />
        </mxCell>
        <mxCell id="Qs5P2ZCcg5z2vbFwHX0I-3" value="" style="ellipse;whiteSpace=wrap;html=1;" vertex="1" parent="1">
          <mxGeometry x="90" y="60" width="150" height="100" as="geometry" />
        </mxCell>
      </root>
    </mxGraphModel>
  </diagram>
</mxfile>
